<svg xmlns="http://www.w3.org/2000/svg" viewBox="0 0 1200 180" width="1200" height="180"><defs><linearGradient id="bg" x1="0" y1="0" x2="1" y2="1"><stop offset="0" stop-color="#07131d"/><stop offset="0.52" stop-color="#0d2731"/><stop offset="1" stop-color="#17352d"/></linearGradient><radialGradient id="teal" cx="0.24" cy="0.32" r="0.62"><stop offset="0" stop-color="#13d7b0" stop-opacity="0.22"/><stop offset="1" stop-color="#13d7b0" stop-opacity="0"/></radialGradient></defs><rect width="1200" height="180" rx="18" fill="url(#bg)"/><rect width="1200" height="180" rx="18" fill="url(#teal)"/><g stroke="#3de0c0" stroke-opacity="0.14" fill="none"><path d="M-20 128 C160 42 270 171 450 88 S740 22 910 91 S1080 130 1225 52" stroke-width="2"/><path d="M90 45 L210 105 L340 48 L470 88 L600 40"/><path d="M755 45 L860 98 L980 42 L1115 92"/></g><g fill="#3de0c0" opacity="0.65"><circle cx="210" cy="105" r="3"/><circle cx="470" cy="88" r="3"/><circle cx="860" cy="98" r="3"/><circle cx="1115" cy="92" r="3"/></g><g fill="#e6c15a" opacity="0.45"><circle cx="600" cy="40" r="2.5"/><circle cx="980" cy="42" r="2.5"/></g></svg>